<svg width="18" height="18" viewBox="0 0 18 18" fill="none" xmlns="http://www.w3.org/2000/svg">
<path d="M2.72065 3.34886H3.55786C3.90446 3.34886 4.18577 3.06756 4.18577 2.72095C4.18577 2.37435 3.90446 2.09304 3.55786 2.09304H2.72065C2.37405 2.09304 2.09274 2.37435 2.09274 2.72095C2.09274 3.06756 2.37405 3.34886 2.72065 3.34886Z" fill="#666666"/>
<path d="M6.48823 3.34886H5.65102C5.30442 3.34886 5.02311 3.06756 5.02311 2.72095C5.02311 2.37435 5.30442 2.09304 5.65102 2.09304H6.48823C6.83483 2.09304 7.11614 2.37435 7.11614 2.72095C7.11614 3.06756 6.83483 3.34886 6.48823 3.34886Z" fill="#666666"/>
<path d="M8.58139 3.34886H9.4186C9.7652 3.34886 10.0465 3.06756 10.0465 2.72095C10.0465 2.37435 9.7652 2.09304 9.4186 2.09304H8.58139C8.23478 2.09304 7.95348 2.37435 7.95348 2.72095C7.95348 3.06756 8.23478 3.34886 8.58139 3.34886Z" fill="#666666"/>
<path fill-rule="evenodd" clip-rule="evenodd" d="M18 8.16279C18 8.50939 17.7187 8.79069 17.3721 8.79069C17.0255 8.79069 16.7442 8.50939 16.7442 8.16279V5.44185H1.25581V15.6977C1.25581 15.9756 1.36633 16.241 1.56223 16.4378C1.75898 16.6337 2.02437 16.7442 2.30233 16.7442H8.16279C8.5094 16.7442 8.7907 17.0255 8.7907 17.3721C8.7907 17.7187 8.5094 18 8.16279 18H2.30233C1.692 18 1.10595 17.7572 0.673954 17.326C0.242791 16.894 0 16.308 0 15.6977V2.30232C0 1.692 0.242791 1.10595 0.673954 0.673953C1.10595 0.242791 1.692 0 2.30233 0H15.6977C16.308 0 16.894 0.242791 17.326 0.673953C17.7572 1.10595 18 1.692 18 2.30232V8.16279ZM16.7442 4.18604V2.30232C16.7442 2.02437 16.6337 1.75898 16.4378 1.56223C16.241 1.36632 15.9756 1.25581 15.6977 1.25581H2.30233C2.02437 1.25581 1.75898 1.36632 1.56223 1.56223C1.36633 1.75898 1.25581 2.02437 1.25581 2.30232V4.18604H16.7442Z" fill="#666666"/>
<path fill-rule="evenodd" clip-rule="evenodd" d="M11.455 10.5667C11.7845 10.3485 12.1576 10.1907 12.5582 10.1093V9C12.5582 8.6534 12.8395 8.3721 13.1861 8.3721C13.5327 8.3721 13.814 8.6534 13.814 9V10.1095C14.2145 10.1909 14.5873 10.3486 14.9166 10.5668L15.7015 9.78194C15.9468 9.53664 16.3444 9.53664 16.5897 9.78194C16.835 10.0272 16.835 10.4249 16.5897 10.6702L15.8049 11.4551C16.0232 11.7845 16.181 12.1575 16.2624 12.5581H17.3717C17.7183 12.5581 17.9996 12.8394 17.9996 13.186C17.9996 13.5326 17.7183 13.8139 17.3717 13.8139H16.2624C16.181 14.2146 16.0232 14.5876 15.8049 14.917L16.5897 15.7019C16.835 15.9472 16.835 16.3448 16.5897 16.5901C16.3444 16.8354 15.9468 16.8354 15.7015 16.5901L14.9166 15.8053C14.5873 16.0235 14.2145 16.1812 13.814 16.2626V17.3721C13.814 17.7187 13.5327 18 13.1861 18C12.8395 18 12.5582 17.7187 12.5582 17.3721V16.2628C12.1576 16.1814 11.7845 16.0236 11.455 15.8054L10.6702 16.5901C10.4249 16.8354 10.0272 16.8354 9.78195 16.5901C9.53664 16.3448 9.53664 15.9472 9.78195 15.7019L10.5667 14.9171C10.3484 14.5876 10.1905 14.2146 10.1091 13.8139H8.99976C8.65316 13.8139 8.37185 13.5326 8.37185 13.186C8.37185 12.8394 8.65316 12.5581 8.99976 12.5581H10.1091C10.1905 12.1575 10.3484 11.7844 10.5667 11.455L9.78195 10.6702C9.53664 10.4249 9.53664 10.0272 9.78195 9.78194C10.0272 9.53664 10.4249 9.53664 10.6702 9.78194L11.455 10.5667ZM15.0695 13.186C15.0695 14.2259 14.2256 15.0698 13.1858 15.0698C12.1459 15.0698 11.302 14.2259 11.302 13.186C11.302 12.1462 12.1459 11.3023 13.1858 11.3023C14.2256 11.3023 15.0695 12.1462 15.0695 13.186Z" fill="#666666"/>
</svg>
