<svg width="144" height="144" viewBox="0 0 144 144" fill="none" xmlns="http://www.w3.org/2000/svg">
<path d="M58.2501 53.2501C54.129 53.2501 50.3741 53.1427 46.7682 52.9181C44.7003 52.7911 43.1281 51.0113 43.2574 48.9435C43.3844 46.878 45.191 45.3034 47.232 45.4327C50.6817 45.6451 54.2853 45.7501 58.2501 45.7501C62.215 45.7501 65.8185 45.6451 69.2682 45.4327C71.38 45.3253 73.1158 46.8805 73.2428 48.9435C73.3722 51.0113 71.7999 52.7911 69.732 52.9181C66.1261 53.1427 62.3712 53.2501 58.2501 53.2501Z" fill="white"/>
<path d="M46.7682 82.9178C50.3741 83.1424 54.129 83.2498 58.2501 83.2498C62.3712 83.2498 66.1261 83.1424 69.732 82.9178C71.7999 82.7908 73.3722 81.0111 73.2428 78.9432C73.1158 76.8802 71.38 75.3152 69.2682 75.4324C65.8185 75.6448 62.215 75.7498 58.2501 75.7498C54.2853 75.7498 50.6817 75.6448 47.232 75.4324C45.191 75.3177 43.3844 76.8753 43.2574 78.9432C43.1281 81.011 44.7003 82.7908 46.7682 82.9178Z" fill="white"/>
<path fill-rule="evenodd" clip-rule="evenodd" d="M58.25 0.75C85.9429 0.75 115.75 6.6167 115.75 19.5V66.6352L140.486 73.3792C142.117 73.8236 143.25 75.3055 143.25 76.9974V115.596C143.25 122.461 139.505 128.767 133.479 132.056L113.794 142.791C113.235 143.096 112.618 143.25 112 143.25C111.382 143.25 110.765 143.096 110.206 142.791L90.5229 132.056C84.4951 128.767 80.75 122.461 80.75 115.596V96.9085C73.666 97.7894 65.9764 98.25 58.25 98.25C39.0563 98.25 18.8469 95.4318 8.25 89.4125V109.5C8.25 112.864 25.2617 120.75 58.25 120.75C62.8179 120.75 67.3491 120.586 71.7241 120.262C73.7798 120.108 75.5864 121.661 75.7402 123.726C75.8916 125.792 74.3413 127.588 72.2759 127.742C67.7202 128.079 63.001 128.25 58.25 128.25C30.5571 128.25 0.75 122.383 0.75 109.5V19.5C0.75 6.6167 30.5571 0.75 58.25 0.75ZM8.25 29.4125C18.8469 35.4318 39.0563 38.25 58.25 38.25C77.4437 38.25 97.6531 35.4318 108.25 29.4125V49.5C108.25 52.8643 91.2383 60.75 58.25 60.75C25.2617 60.75 8.25 52.8643 8.25 49.5V29.4125ZM58.25 30.75C91.2383 30.75 108.25 22.8643 108.25 19.5C108.25 16.1357 91.2383 8.25 58.25 8.25C25.2617 8.25 8.25 16.1357 8.25 19.5C8.25 22.8643 25.2617 30.75 58.25 30.75ZM80.75 89.3473V77.7005C80.75 76.0428 81.8389 74.5804 83.4282 74.1068L108.25 66.7048V59.4125C97.6531 65.4318 77.4437 68.25 58.25 68.25C39.0563 68.25 18.8469 65.4318 8.25 59.4125V79.5C8.25 82.8643 25.2617 90.75 58.25 90.75C66.0145 90.75 73.7221 90.267 80.75 89.3473ZM112.151 112.154L127.151 97.1512C128.616 95.6864 128.616 93.3133 127.151 91.8485C125.687 90.3836 123.314 90.3836 121.849 91.8485L109.148 104.551L101.751 99.0018C100.093 97.7616 97.7446 98.096 96.4995 99.7513C95.2568 101.409 95.5938 103.76 97.249 105.003L107.249 112.503C107.92 113.006 108.711 113.252 109.5 113.252C110.464 113.252 111.424 112.881 112.151 112.154Z" fill="white"/>
<path d="M58.2501 113.25C54.129 113.25 50.3741 113.143 46.7682 112.918C44.7003 112.791 43.1281 111.011 43.2574 108.944C43.3844 106.878 45.191 105.298 47.232 105.433C50.6817 105.645 54.2853 105.75 58.2501 105.75C62.215 105.75 65.8185 105.645 69.2682 105.433C71.38 105.306 73.1158 106.881 73.2428 108.944C73.3722 111.011 71.7999 112.791 69.732 112.918C66.1261 113.143 62.3712 113.25 58.2501 113.25Z" fill="white"/>
</svg>
