<svg width="20" height="20" viewBox="0 0 20 20" fill="none" xmlns="http://www.w3.org/2000/svg">
<path d="M6.67969 14.6485C6.67969 14.9721 6.41735 15.2344 6.09375 15.2344C5.77014 15.2344 5.50781 14.9721 5.50781 14.6485V10.7423C5.50781 10.4187 5.77014 10.1563 6.09375 10.1563C6.41735 10.1563 6.67969 10.4187 6.67969 10.7423V12.0425H8.21099V10.7423C8.21099 10.4187 8.47333 10.1563 8.79693 10.1563C9.12053 10.1563 9.38287 10.4187 9.38287 10.7423V14.6485C9.38287 14.9721 9.12053 15.2344 8.79693 15.2344C8.47333 15.2344 8.21099 14.9721 8.21099 14.6485V13.2143H6.67969V14.6485Z" fill="#666666"/>
<path fill-rule="evenodd" clip-rule="evenodd" d="M13.5121 15.0884C13.755 14.8746 13.7786 14.5043 13.5648 14.2614L12.6675 13.2418C13.2617 13.0093 13.7109 12.4503 13.7109 11.7575C13.7109 10.8393 12.9221 10.1563 12.0524 10.1563H11.0169C11.0157 10.1563 11.0144 10.1563 11.0131 10.1563C10.6895 10.1563 10.4271 10.4187 10.4271 10.7423V14.6485C10.4271 14.9721 10.6895 15.2344 11.0131 15.2344C11.3367 15.2344 11.599 14.9721 11.599 14.6485V13.8016L12.6851 15.0356C12.8989 15.2786 13.2692 15.3022 13.5121 15.0884ZM11.6043 12.1881C11.6035 12.0221 11.6029 11.8594 11.6029 11.7575C11.6029 11.6689 11.6025 11.5016 11.602 11.3282H12.0524C12.3447 11.3282 12.5391 11.5542 12.5391 11.7575C12.5391 11.9606 12.3448 12.1867 12.0524 12.1867C11.9446 12.1867 11.7749 12.1873 11.6043 12.1881Z" fill="#666666"/>
<path fill-rule="evenodd" clip-rule="evenodd" d="M4.11409 4.12918C3.76411 3.69402 3.55468 3.14103 3.55468 2.53914C3.55468 1.13686 4.69146 7.62939e-05 6.09374 7.62939e-05C7.49602 7.62939e-05 8.6328 1.13686 8.6328 2.53914C8.6328 3.14103 8.42337 3.69401 8.0734 4.12918C9.31491 4.60984 10.1953 5.81543 10.1953 7.22664V7.81257H11.947L13.3622 4.27465C13.4512 4.0522 13.6666 3.90633 13.9062 3.90633H18.2031C18.3975 3.90633 18.5793 4.00277 18.6883 4.16377C18.7973 4.32477 18.8194 4.52935 18.7471 4.70988L17.5061 7.81257H19.4141C19.7377 7.81257 20 8.07491 20 8.39851V16.9923C20 17.3159 19.7377 17.5782 19.4141 17.5782H18.7891V19.4141C18.7891 19.7377 18.5267 20.0001 18.2031 20.0001H15.8594C15.5358 20.0001 15.2734 19.7377 15.2734 19.4141V17.5782H4.72655V19.4141C4.72655 19.7377 4.46422 20.0001 4.14061 20.0001H1.79687C1.47326 20.0001 1.21093 19.7377 1.21093 19.4141V17.5782H0.585937C0.262333 17.5782 0 17.3159 0 16.9923V8.39851C0 8.07491 0.262333 7.81257 0.585937 7.81257H1.99219V7.22664C1.99219 5.81543 2.87258 4.60985 4.11409 4.12918ZM18.8281 16.4063V8.98445H1.17187V16.4063H18.8281ZM16.4453 17.5782V18.8282H17.6172V17.5782H16.4453ZM2.3828 17.5782H3.55468V18.8282H2.3828V17.5782ZM6.09262 3.90633H6.09486C6.84941 3.90572 7.46093 3.29383 7.46093 2.53914C7.46093 1.78407 6.84881 1.17195 6.09374 1.17195C5.33867 1.17195 4.72655 1.78407 4.72655 2.53914C4.72655 3.29383 5.33807 3.90572 6.09262 3.90633ZM5.3125 5.0782C4.12595 5.0782 3.16406 6.04009 3.16406 7.22664V7.81257H9.02344V7.22664C9.02344 6.04009 8.06155 5.0782 6.875 5.0782H5.3125ZM13.2092 7.81257H16.2439L17.3377 5.0782H14.3029L13.2092 7.81257Z" fill="#666666"/>
</svg>
