<svg width="20" height="20" viewBox="0 0 20 20" fill="none" xmlns="http://www.w3.org/2000/svg">
<path d="M19.3137 11.3114C18.3998 10.3976 16.9128 10.3976 15.9996 11.3108L11.7104 15.5905C11.6193 15.6814 11.5521 15.7934 11.5147 15.9165L10.5806 18.9916C10.4977 19.2643 10.5701 19.5603 10.7689 19.7643C10.918 19.9171 11.1205 20.0001 11.3283 20.0001C11.3977 20.0001 11.4679 19.9908 11.5367 19.9715L14.6901 19.0981C14.8198 19.0621 14.938 18.9933 15.0334 18.8982L19.3137 14.6261C20.2274 13.7121 20.2274 12.2253 19.3137 11.3114ZM14.075 17.6472L12.4886 18.0866L12.9529 16.5582L15.8469 13.6704L16.9521 14.7755L14.075 17.6472ZM18.2092 13.5206L18.0579 13.6717L16.953 12.5668L17.1039 12.4162C17.4084 12.1116 17.9041 12.1116 18.2088 12.4162C18.5133 12.7209 18.5133 13.2165 18.2092 13.5206ZM8.94531 19.2187C8.94531 19.6502 8.59558 19.9999 8.16406 19.9999H3.125C1.40198 19.9999 0 18.5981 0 16.8749V3.12499C0 1.40182 1.40198 0 3.125 0H12.7301C14.4533 0 15.8551 1.40182 15.8551 3.12499V9.14059C15.8551 9.57211 15.5054 9.92184 15.0739 9.92184C14.6423 9.92184 14.2926 9.57211 14.2926 9.14059V3.12499C14.2926 2.26348 13.5916 1.56249 12.7301 1.56249H3.125C2.26349 1.56249 1.5625 2.26348 1.5625 3.12499V16.8749C1.5625 17.7364 2.26349 18.4374 3.125 18.4374H8.16406C8.59558 18.4374 8.94531 18.7872 8.94531 19.2187ZM12.7344 5.82029C12.7344 6.25181 12.3846 6.60154 11.9531 6.60154H9.64844C9.21692 6.60154 8.86719 6.25181 8.86719 5.82029C8.86719 5.38877 9.21692 5.03904 9.64844 5.03904H11.9531C12.3846 5.03904 12.7344 5.38877 12.7344 5.82029ZM8.02429 4.20851L6.20087 6.41538C5.96313 6.7085 5.61127 6.89069 5.23453 6.91587C5.20462 6.91785 5.17456 6.91892 5.14465 6.91892C4.79706 6.91892 4.45892 6.78479 4.20578 6.54371C4.19861 6.53699 4.19159 6.52997 4.18457 6.5228L3.34656 5.66221C3.0455 5.35307 3.05222 4.85853 3.36121 4.55748C3.67035 4.25642 4.16489 4.26298 4.46594 4.57213L5.13199 5.25602L6.81961 3.21334C7.09442 2.8807 7.58698 2.83385 7.91946 3.10866C8.25211 3.38347 8.29895 3.87587 8.02429 4.20851ZM11.9531 11.4062H9.64844C9.21692 11.4062 8.86719 11.0565 8.86719 10.625C8.86719 10.1934 9.21692 9.84371 9.64844 9.84371H11.9531C12.3846 9.84371 12.7344 10.1934 12.7344 10.625C12.7344 11.0565 12.3846 11.4062 11.9531 11.4062ZM8.02429 9.0083L6.20087 11.2153C5.96313 11.5083 5.61127 11.6906 5.23453 11.7157C5.20462 11.7176 5.17456 11.7187 5.14465 11.7187C4.79691 11.7187 4.45892 11.5846 4.20563 11.3435C4.19907 11.3372 4.1925 11.3308 4.1861 11.3243L3.34808 10.4684C3.04626 10.1602 3.05145 9.66549 3.35968 9.36367C3.66791 9.0617 4.1626 9.06689 4.46442 9.37527L5.13153 10.0564L6.81961 8.01312C7.09442 7.68048 7.58698 7.63379 7.91946 7.90845C8.25211 8.18326 8.29895 8.67566 8.02429 9.0083ZM8.02429 13.7348L6.20087 15.9419C5.96313 16.2348 5.61127 16.4172 5.23453 16.4422C5.20462 16.4442 5.17456 16.4452 5.14465 16.4452C4.79691 16.4452 4.45892 16.3111 4.20563 16.07C4.19907 16.0638 4.1925 16.0574 4.1861 16.0508L3.34808 15.1949C3.04626 14.8867 3.05145 14.392 3.35968 14.0902C3.66791 13.7882 4.1626 13.7934 4.46442 14.1018L5.13153 14.783L6.81961 12.7397C7.09442 12.407 7.58698 12.3603 7.91946 12.635C8.25211 12.9098 8.29895 13.4022 8.02429 13.7348Z" fill="#666666"/>
</svg>
