<svg width="20" height="20" viewBox="0 0 20 20" fill="none" xmlns="http://www.w3.org/2000/svg">
<path d="M17.8571 14.2857V11.4286C17.8571 10.8603 17.6314 10.3152 17.2295 9.91334C16.8277 9.51148 16.2826 9.28571 15.7143 9.28571H10.7143V6.42857H12.1429C12.7112 6.42857 13.2562 6.20281 13.6581 5.80094C14.0599 5.39908 14.2857 4.85404 14.2857 4.28571V2.14286C14.2857 1.57454 14.0599 1.02949 13.6581 0.627628C13.2562 0.225765 12.7112 0 12.1429 0H7.85714C7.28882 0 6.74378 0.225765 6.34191 0.627628C5.94005 1.02949 5.71429 1.57454 5.71429 2.14286V4.28571C5.71429 4.85404 5.94005 5.39908 6.34191 5.80094C6.74378 6.20281 7.28882 6.42857 7.85714 6.42857H9.28571V9.28571H4.28571C3.71739 9.28571 3.17235 9.51148 2.77049 9.91334C2.36862 10.3152 2.14286 10.8603 2.14286 11.4286V14.2857C1.57454 14.2857 1.02949 14.5115 0.627628 14.9133C0.225765 15.3152 0 15.8603 0 16.4286V17.8571C0 18.4255 0.225765 18.9705 0.627628 19.3724C1.02949 19.7742 1.57454 20 2.14286 20H3.57143C4.13975 20 4.68479 19.7742 5.08666 19.3724C5.48852 18.9705 5.71429 18.4255 5.71429 17.8571V16.4286C5.71429 15.8603 5.48852 15.3152 5.08666 14.9133C4.68479 14.5115 4.13975 14.2857 3.57143 14.2857V11.4286C3.57143 11.2391 3.64668 11.0574 3.78064 10.9235C3.91459 10.7895 4.09627 10.7143 4.28571 10.7143H9.28571V14.2857C8.71739 14.2857 8.17235 14.5115 7.77049 14.9133C7.36862 15.3152 7.14286 15.8603 7.14286 16.4286V17.8571C7.14286 18.4255 7.36862 18.9705 7.77049 19.3724C8.17235 19.7742 8.71739 20 9.28571 20H10.7143C11.2826 20 11.8277 19.7742 12.2295 19.3724C12.6314 18.9705 12.8571 18.4255 12.8571 17.8571V16.4286C12.8571 15.8603 12.6314 15.3152 12.2295 14.9133C11.8277 14.5115 11.2826 14.2857 10.7143 14.2857V10.7143H15.7143C15.9037 10.7143 16.0854 10.7895 16.2194 10.9235C16.3533 11.0574 16.4286 11.2391 16.4286 11.4286V14.2857C15.8603 14.2857 15.3152 14.5115 14.9133 14.9133C14.5115 15.3152 14.2857 15.8603 14.2857 16.4286V17.8571C14.2857 18.4255 14.5115 18.9705 14.9133 19.3724C15.3152 19.7742 15.8603 20 16.4286 20H17.8571C18.4255 20 18.9705 19.7742 19.3724 19.3724C19.7742 18.9705 20 18.4255 20 17.8571V16.4286C20 15.8603 19.7742 15.3152 19.3724 14.9133C18.9705 14.5115 18.4255 14.2857 17.8571 14.2857ZM7.14286 4.28571V2.14286C7.14286 1.95342 7.21811 1.77174 7.35207 1.63778C7.48602 1.50383 7.6677 1.42857 7.85714 1.42857H12.1429C12.3323 1.42857 12.514 1.50383 12.6479 1.63778C12.7819 1.77174 12.8571 1.95342 12.8571 2.14286V4.28571C12.8571 4.47515 12.7819 4.65684 12.6479 4.79079C12.514 4.92475 12.3323 5 12.1429 5H7.85714C7.6677 5 7.48602 4.92475 7.35207 4.79079C7.21811 4.65684 7.14286 4.47515 7.14286 4.28571ZM4.28571 16.4286V17.8571C4.28571 18.0466 4.21046 18.2283 4.0765 18.3622C3.94255 18.4962 3.76087 18.5714 3.57143 18.5714H2.14286C1.95342 18.5714 1.77174 18.4962 1.63778 18.3622C1.50383 18.2283 1.42857 18.0466 1.42857 17.8571V16.4286C1.42857 16.2391 1.50383 16.0574 1.63778 15.9235C1.77174 15.7895 1.95342 15.7143 2.14286 15.7143H3.57143C3.76087 15.7143 3.94255 15.7895 4.0765 15.9235C4.21046 16.0574 4.28571 16.2391 4.28571 16.4286ZM11.4286 16.4286V17.8571C11.4286 18.0466 11.3533 18.2283 11.2194 18.3622C11.0854 18.4962 10.9037 18.5714 10.7143 18.5714H9.28571C9.09627 18.5714 8.91459 18.4962 8.78064 18.3622C8.64668 18.2283 8.57143 18.0466 8.57143 17.8571V16.4286C8.57143 16.2391 8.64668 16.0574 8.78064 15.9235C8.91459 15.7895 9.09627 15.7143 9.28571 15.7143H10.7143C10.9037 15.7143 11.0854 15.7895 11.2194 15.9235C11.3533 16.0574 11.4286 16.2391 11.4286 16.4286ZM18.5714 17.8571C18.5714 18.0466 18.4962 18.2283 18.3622 18.3622C18.2283 18.4962 18.0466 18.5714 17.8571 18.5714H16.4286C16.2391 18.5714 16.0574 18.4962 15.9235 18.3622C15.7895 18.2283 15.7143 18.0466 15.7143 17.8571V16.4286C15.7143 16.2391 15.7895 16.0574 15.9235 15.9235C16.0574 15.7895 16.2391 15.7143 16.4286 15.7143H17.8571C18.0466 15.7143 18.2283 15.7895 18.3622 15.9235C18.4962 16.0574 18.5714 16.2391 18.5714 16.4286V17.8571Z" fill="#666666"/>
</svg>
