<svg width="20" height="20" viewBox="0 0 20 20" fill="none" xmlns="http://www.w3.org/2000/svg">
<path fill-rule="evenodd" clip-rule="evenodd" d="M1.25525 2.46875C1.25525 3.14541 1.52784 3.75867 1.96911 4.20472C0.797521 4.83234 0 6.06847 0 7.48959V8.74478C0 9.06839 0.262333 9.33072 0.585938 9.33072H2.62261C2.54885 9.75226 2.51043 10.1857 2.51043 10.6276C2.51043 13.4587 4.08435 15.9236 6.40177 17.1965C6.31977 17.5036 6.27605 17.8261 6.27605 18.1589V19.4141C6.27605 19.7377 6.53839 20 6.86199 20H13.138C13.4617 20 13.724 19.7377 13.724 19.4141V18.1589C13.724 17.8261 13.6803 17.5036 13.5983 17.1966C15.9157 15.9236 17.4896 13.4587 17.4896 10.6276C17.4896 10.1857 17.4512 9.75225 17.3774 9.33072H19.4141C19.7377 9.33072 20 9.06839 20 8.74478V7.48959C20 6.06847 19.2025 4.83235 18.031 4.20472C18.4722 3.75868 18.7448 3.14541 18.7448 2.46875C18.7448 1.1062 17.6389 0 16.2761 0C14.9133 0 13.8073 1.10619 13.8073 2.46875C13.8073 3.14541 14.0799 3.75868 14.5212 4.20472C14.4031 4.268 14.2888 4.33746 14.1787 4.41267C12.9849 3.60811 11.5463 3.13801 10 3.13801C8.45373 3.13801 7.01517 3.60811 5.82134 4.41267C5.71127 4.33746 5.59696 4.268 5.47885 4.20473C5.92014 3.75868 6.19274 3.14542 6.19274 2.46875C6.19274 1.10619 5.08677 0 3.724 0C2.36117 0 1.25525 1.1062 1.25525 2.46875ZM14.5743 5.58851C14.5791 5.5844 14.5838 5.5802 14.5885 5.57591C15.0385 5.17869 15.6294 4.93752 16.2761 4.93752C17.6844 4.93752 18.8282 6.08131 18.8282 7.48959V8.15884H16.6563C16.6479 8.15866 16.6394 8.15866 16.631 8.15884H13.724V7.48959C13.724 6.73479 14.0526 6.05597 14.5743 5.58851ZM13.3058 5.24397C12.344 4.65152 11.2121 4.30989 10 4.30989C8.78794 4.30989 7.65602 4.65152 6.6942 5.24397C7.16721 5.86843 7.44793 6.64645 7.44793 7.48959V8.74478C7.44793 9.06839 7.1856 9.33072 6.86199 9.33072H3.8157C3.72833 9.74889 3.68231 10.1827 3.68231 10.6276C3.68231 12.9797 4.97076 15.0348 6.8822 16.1226C7.22386 15.6008 7.69296 15.1698 8.24515 14.874C7.80387 14.428 7.53127 13.8147 7.53127 13.138C7.53127 11.7755 8.6372 10.6693 10 10.6693C11.3628 10.6693 12.4688 11.7755 12.4688 13.138C12.4688 13.8147 12.1962 14.4279 11.7549 14.874C12.3071 15.1698 12.7762 15.6008 13.1178 16.1226C15.0293 15.0348 16.3177 12.9797 16.3177 10.6276C16.3177 10.1827 16.2717 9.74889 16.1843 9.33072H13.138C12.8144 9.33072 12.5521 9.06839 12.5521 8.74478V7.48959C12.5521 6.64645 12.8328 5.86843 13.3058 5.24397ZM3.34333 8.15884C3.35203 8.15865 3.36076 8.15865 3.36951 8.15884H6.27606V7.48959C6.27606 6.73473 5.94744 6.05587 5.42561 5.5884C5.42091 5.58436 5.41627 5.58023 5.41168 5.57602C4.96167 5.17874 4.37072 4.93752 3.72398 4.93752C2.31564 4.93752 1.17188 6.08132 1.17188 7.48959V8.15884H3.34333ZM3.724 3.76562C3.00839 3.76562 2.42712 3.18445 2.42712 2.46875C2.42712 1.75333 3.00846 1.17188 3.724 1.17188C4.4395 1.17188 5.02087 1.75334 5.02087 2.46875C5.02087 3.18444 4.43957 3.76562 3.724 3.76562ZM16.2761 3.76562C15.5605 3.76562 14.9792 3.18444 14.9792 2.46875C14.9792 1.75334 15.5606 1.17188 16.2761 1.17188C16.9916 1.17188 17.573 1.75333 17.573 2.46875C17.573 3.18445 16.9917 3.76562 16.2761 3.76562ZM8.70315 13.138C8.70315 13.8537 9.28441 14.4349 10 14.4349C10.7156 14.4349 11.2969 13.8537 11.2969 13.138C11.2969 12.4226 10.7156 11.8411 10 11.8411C9.28449 11.8411 8.70315 12.4226 8.70315 13.138ZM7.44793 18.1589V18.8281H12.5521V18.1589C12.5521 16.7506 11.4083 15.6068 10 15.6068C8.59169 15.6068 7.44793 16.7506 7.44793 18.1589Z" fill="#666666"/>
</svg>
