<svg width="236" height="239" viewBox="0 0 236 239" fill="none" xmlns="http://www.w3.org/2000/svg">
<path fill-rule="evenodd" clip-rule="evenodd" d="M30.2406 238.789L31.6159 236.692C33.2467 234.205 35.4242 231.473 37.9034 229.153C40.3914 226.826 43.1267 224.966 45.8687 224.138C48.5714 223.322 51.2758 223.504 53.8535 225.248C56.4764 227.023 59.0803 230.493 61.3439 236.496L63.2153 235.791C60.8789 229.594 58.0787 225.693 54.9745 223.592C51.8251 221.46 48.4795 221.261 45.2905 222.224C42.1408 223.175 39.1428 225.255 36.537 227.693C34.5588 229.544 32.774 231.631 31.2849 233.662C30.1211 228.771 28.3238 225.523 26.0156 223.644C23.3043 221.437 20.0838 221.269 16.9047 222.223C13.7552 223.168 10.5518 225.233 7.65244 227.656C4.74157 230.088 2.07531 232.934 0 235.517L1.55925 236.77C3.56723 234.27 6.14263 231.524 8.93488 229.19C11.7387 226.848 14.6998 224.973 17.4795 224.139C20.2296 223.314 22.7028 223.527 24.753 225.196C26.8614 226.912 28.7124 230.315 29.7955 236.321L30.2406 238.789Z" fill="#8B8B8B"/>
<path fill-rule="evenodd" clip-rule="evenodd" d="M85.4244 234.604C85.5974 235.336 85.8285 235.552 85.896 235.604L85.4244 234.604ZM85.896 235.604C85.9803 235.593 86.2881 235.521 86.8031 234.974L86.8034 234.973C87.4514 234.286 88.1115 233.131 88.5072 231.653C88.9029 230.175 88.909 228.846 88.692 227.926M88.2589 236.345C87.336 237.325 86.3032 237.792 85.3764 237.543C84.4497 237.295 83.7879 236.375 83.478 235.064L83.4779 235.064C83.171 233.764 83.2129 232.093 83.6772 230.359L83.6773 230.359C84.1425 228.625 84.9411 227.157 85.8574 226.185L85.8575 226.185C86.7812 225.205 87.814 224.738 88.7409 224.986C89.6682 225.235 90.3286 226.156 90.6383 227.466L90.6384 227.466C90.9453 228.766 90.9034 230.437 90.4391 232.171C89.9748 233.905 89.1751 235.373 88.2592 236.345M85.609 230.877C85.2134 232.355 85.2073 233.684 85.4243 234.604L85.609 230.877ZM87.3128 227.557C86.6652 228.244 86.0059 229.398 85.6091 230.876L87.3128 227.557ZM88.6919 227.926C88.519 227.195 88.2887 226.978 88.2212 226.926L88.6919 227.926ZM88.2212 226.926C88.1366 226.937 87.8285 227.01 87.3129 227.556L88.2212 226.926Z" fill="#8B8B8B"/>
<path fill-rule="evenodd" clip-rule="evenodd" d="M184.448 206.372C146.533 230.93 120.953 216.766 113.007 206.981L111.454 208.241C120.086 218.87 146.818 233.128 185.535 208.051L184.448 206.372Z" fill="#8B8B8B"/>
<path d="M160.522 72.3554C162.706 72.0246 164.745 73.5271 165.076 75.7113C165.407 77.8956 163.904 79.9344 161.72 80.2652C159.536 80.596 157.497 79.0935 157.166 76.9092C156.835 74.725 158.338 72.6862 160.522 72.3554Z" fill="#8B8B8B"/>
<path d="M226.734 48.1183L223.93 51.9223L220.026 49.0443L218.068 51.7013L221.973 54.5783L219.17 58.3823L221.625 60.1913L224.428 56.3883L228.332 59.2653L230.29 56.6083L226.386 53.7313L229.189 49.9273L226.734 48.1183Z" fill="#8B8B8B"/>
<path d="M168.237 148.485L172.933 149.011L172.393 153.831L175.672 154.199L176.212 149.378L180.908 149.904L181.247 146.873L176.551 146.347L177.091 141.527L173.812 141.16L173.272 145.98L168.576 145.454L168.237 148.485Z" fill="#8B8B8B"/>
<path d="M228.348 166.258C231.078 165.844 233.626 167.723 234.04 170.453C234.453 173.183 232.575 175.732 229.845 176.145C227.115 176.559 224.566 174.681 224.153 171.95C223.739 169.22 225.617 166.671 228.348 166.258Z" fill="#8B8B8B"/>
<path d="M165.86 0.748702C168.591 0.335216 171.139 2.21336 171.553 4.94365C171.966 7.67394 170.088 10.2225 167.358 10.636C164.627 11.0494 162.079 9.17131 161.665 6.44101C161.252 3.71072 163.13 1.16219 165.86 0.748702Z" fill="#8B8B8B"/>
<path d="M191.928 36.686C195.204 36.1898 198.263 38.4436 198.759 41.7199C199.255 44.9963 197.001 48.0545 193.725 48.5507C190.448 49.0469 187.39 46.7931 186.894 43.5167C186.398 40.2404 188.652 37.1821 191.928 36.686Z" fill="#8B8B8B"/>
<path d="M222.245 111.873C220.177 109.283 220.6 105.508 223.189 103.44C225.778 101.372 229.554 101.795 231.621 104.384C233.689 106.973 233.267 110.749 230.677 112.817C228.088 114.885 224.313 114.462 222.245 111.873Z" fill="#8B8B8B"/>
<path d="M215.348 184.126L212.358 184.579L211.894 181.51L209.805 181.826L210.27 184.895L207.28 185.348L207.572 187.278L210.562 186.825L211.027 189.894L213.115 189.578L212.651 186.509L215.64 186.056L215.348 184.126Z" fill="#8B8B8B"/>
</svg>
